LG_Stand_to_Walk04																		
version=1																		
nRows=35																		
nColumns=19																		
inDegrees=yes																		
endheader																		
time	ground_force2_vx	ground_force2_vy	ground_force2_vz	ground_force2_px	ground_force2_py	ground_force2_pz	ground_torque2_x	ground_torque2_y	ground_torque2_z	ground_force1_vx	ground_force1_vy	ground_force1_vz	ground_force1_px	ground_force1_py	ground_force1_pz	ground_torque1_x	ground_torque1_y	ground_torque1_z
3.785	-45.304417	674.087219	144.091095	0.193803	0	-0.286248	6.00E-06	0.967566	8.00E-06	3.476128	297.613983	-33.141758	-0.112014	0	0.224238	-6.00E-06	-0.040904	-2.00E-06
3.786	-44.294518	673.030334	143.778137	0.193935	0	-0.286248	6.00E-06	0.967566	2.00E-06	3.476128	298.639709	-33.220207	-0.111593	0	0.224238	-6.00E-06	-0.040904	-2.00E-06
3.787	-44.290192	668.716064	143.621597	0.193935	0	-0.28643	9.00E-06	0.980964	2.00E-06	5.978183	299.518311	-33.690594	-0.11316	0	0.224856	-5.00E-06	-0.282808	-2.00E-06
3.788	-44.294518	663.542725	142.681747	0.193832	0	-0.28643	9.00E-06	1.025762	1.00E-06	6.453948	303.285278	-33.768845	-0.113695	0	0.226666	-4.00E-06	-0.282808	-2.00E-06
3.789	-43.119541	658.37323	142.368134	0.193722	0	-0.286536	9.00E-06	1.020168	5.00E-06	6.683892	309.635834	-34.944489	-0.11455	0	0.228819	-1.00E-06	-0.340889	-2.00E-06
3.79	-42.657486	653.185669	142.212128	0.193832	0	-0.286189	1.20E-05	1.020168	5.00E-06	8.333194	311.156372	-35.022697	-0.11455	0	0.229315	0	-0.340889	-2.00E-06
3.791	-42.50106	648.900269	141.507019	0.193716	0	-0.286109	1.20E-05	0.868958	6.00E-06	8.723892	311.156372	-35.336342	-0.114606	0	0.229315	0.00E+00	-0.340889	-1.00E-06
3.792	-42.032513	644.744507	140.959229	0.193716	0	-0.285178	8.00E-06	0.868958	7.00E-06	9.19677	311.156372	-36.041595	-0.11444	0	0.228945	-2.00E-06	-0.330766	-1.00E-06
3.793	-41.726162	639.748291	140.645386	0.193614	0	-0.285387	8.00E-06	0.880517	7.00E-06	10.060347	315.46228	-36.276627	-0.114606	0	0.228945	-3.00E-06	-0.251691	-2.00E-06
3.794	-40.788342	634.923218	140.254227	0.193516	0	-0.285387	7.00E-06	0.941972	4.00E-06	10.140363	315.46228	-36.198257	-0.11444	0	0.229586	-2.00E-06	-0.251691	-2.00E-06
3.795	-40.00983	632.151001	139.549088	0.193614	0	-0.285457	7.00E-06	0.880517	4.00E-06	12.328127	315.808258	-37.216957	-0.115127	0	0.229586	-4.00E-06	-0.404012	-2.00E-06
3.796	-39.697708	625.428589	139.392914	0.193768	0	-0.285457	7.00E-06	0.953877	4.00E-06	12.562402	315.808258	-37.216957	-0.114314	0	0.229586	-4.00E-06	-0.404012	-3.00E-06
3.797	-39.232765	621.814392	138.296036	0.193842	0	-0.285184	5.00E-06	0.818943	7.00E-06	12.564566	317.319519	-37.843601	-0.114273	0	0.228412	-6.00E-06	-0.324452	-3.00E-06
3.798	-38.368465	616.128479	138.139542	0.193842	0	-0.284896	5.00E-06	0.838038	0.00E+00	13.347405	318.393005	-37.843601	-0.11347	0	0.228175	-8.00E-06	-0.324452	-1.00E-06
3.799	-37.904972	611.459717	137.434692	0.193542	0	-0.284896	5.00E-06	0.735473	1.00E-06	13.347405	318.905273	-37.843601	-0.114273	0	0.228175	-6.00E-06	-0.324452	-1.00E-06
3.8	-37.748543	608.004761	136.808167	0.193493	0	-0.284577	9.00E-06	0.838038	1.00E-06	14.443091	323.726807	-37.451706	-0.114072	0	0.229378	-6.00E-06	-0.302269	-1.00E-06
3.801	-36.735043	601.284302	136.102905	0.193493	0	-0.284577	3.00E-06	0.790665	1.00E-06	14.443813	324.914062	-37.451706	-0.114325	0	0.23014	-6.00E-06	-0.298128	-1.00E-06
3.802	-36.191525	598.00647	135.241791	0.1935	0	-0.284443	9.00E-06	0.900691	1.00E-06	15.385962	326.462372	-37.451706	-0.114271	0	0.230597	-4.00E-06	-0.302269	-1.00E-06
3.803	-35.413017	593.344238	135.241592	0.193661	0	-0.284061	1.20E-05	0.82085	6.00E-06	15.775938	326.462372	-37.216835	-0.114333	0	0.23014	-4.00E-06	-0.35418	-1.00E-06
3.804	-35.256592	586.287415	134.144958	0.193628	0	-0.284075	1.20E-05	0.82085	6.00E-06	15.775938	326.462372	-37.216835	-0.114333	0	0.230036	-4.00E-06	-0.35418	-2.00E-06
3.805	-34.710194	580.589111	132.813217	0.193628	0	-0.284075	1.20E-05	0.82085	6.00E-06	16.955971	330.937561	-37.373779	-0.114866	0	0.230036	-4.00E-06	-0.265296	-2.00E-06
3.806	-33.933128	578.157104	132.500183	0.193383	0	-0.284075	7.00E-06	0.882076	6.00E-06	16.955971	332.814514	-37.687061	-0.114866	0	0.230847	-3.00E-06	-0.265296	-2.00E-06
3.807	-32.9189	572.47937	132.186783	0.193383	0	-0.283883	1.60E-05	0.882076	6.00E-06	18.98731	333.32251	-37.373779	-0.11465	0	0.231204	-3.00E-06	-0.265296	-2.00E-06
3.808	-32.681015	568.157349	131.011902	0.193074	0	-0.283605	7.00E-06	0.811392	6.00E-06	18.99597	333.32251	-36.825386	-0.11465	0	0.231204	-3.00E-06	-0.183887	-2.00E-06
3.809	-32.139671	561.262939	130.463745	0.193591	0	-0.283294	1.70E-05	0.750348	6.00E-06	19.467405	337.61908	-36.668724	-0.115458	0	0.233237	-4.00E-06	-0.183887	-2.00E-06
3.81	-31.359715	557.654419	129.445297	0.193051	0	-0.283294	1.40E-05	0.811392	7.00E-06	20.324488	337.61908	-36.590393	-0.115603	0	0.233237	-6.00E-06	-0.165531	-2.00E-06
3.811	-30.815479	552.623047	128.505371	0.193381	0	-0.283528	1.40E-05	0.83226	8.00E-06	20.643829	337.61908	-36.355362	-0.116032	0	0.233715	-7.00E-06	-0.165531	-2.00E-06
3.812	-29.801975	544.871948	128.113953	0.193051	0	-0.283528	1.00E-05	0.896013	8.00E-06	21.81881	338.645874	-36.355362	-0.116032	0	0.233715	-6.00E-06	-0.127293	-2.00E-06
3.813	-28.942726	540.389893	127.095459	0.193368	0	-0.283486	8.00E-06	0.83226	8.00E-06	21.899548	342.07843	-36.747093	-0.116102	0	0.234955	-7.00E-06	-0.095791	-1.00E-06
3.814	-28.787025	533.316406	126.233902	0.193018	0	-0.283414	8.00E-06	0.902545	6.00E-06	22.36521	342.07843	-36.747093	-0.116102	0	0.234955	-5.00E-06	-0.127293	-1.00E-06
3.815	-28.787025	531.403687	125.685745	0.192896	0	-0.283212	8.00E-06	0.954051	6.00E-06	24.950888	339.837799	-35.336983	-0.116019	0	0.23359	-9.00E-06	-0.265018	-1.00E-06
3.816	-27.150713	523.138428	124.275719	0.192845	0	-0.282944	8.00E-06	0.954051	-1.00E-06	25.342306	339.837799	-35.336983	-0.116019	0	0.232818	-5.00E-06	-0.265018	-2.00E-06
3.817	-26.056471	516.407104	122.787033	0.192896	0	-0.282934	7.00E-06	0.884798	3.00E-06	25.735891	342.252441	-37.060898	-0.116064	0	0.233279	-6.00E-06	-0.25747	-2.00E-06
3.818	-25.51512	511.578735	121.847229	0.192872	0	-0.282934	7.00E-06	0.848648	-1.00E-06	26.05018	344.841797	-37.060898	-0.116332	0	0.233279	-3.00E-06	-0.092724	-3.00E-06
3.819	-24.029461	504.676147	120.750603	0.192932	0	-0.281985	8.00E-06	0.8307	3.00E-06	26.915201	344.841797	-37.060898	-0.116423	0	0.23481	-3.00E-06	-0.16714	-2.00E-06
